<?xml version="1.0" encoding="UTF-8" ?>
<!DOCTYPE svg PUBLIC "-//W3C//DTD SVG 1.1//EN" "http://www.w3.org/Graphics/SVG/1.1/DTD/svg11.dtd">
<svg width="576pt" height="720pt" viewBox="0 0 576 720" version="1.1" xmlns="http://www.w3.org/2000/svg">
<g id="#000">
<path fill="#000" d=" M 181.96 0.00 L 394.05 0.00 C 394.20 108.59 393.89 217.20 394.20 325.79 C 420.13 325.82 446.07 325.79 472.00 325.80 C 488.62 325.98 505.27 325.43 521.87 326.08 C 444.40 422.51 366.63 518.71 289.10 615.09 C 288.36 615.91 287.63 615.92 286.90 615.09 C 209.37 518.70 131.59 422.51 54.13 326.08 C 58.74 325.63 63.38 325.82 68.00 325.80 C 105.93 325.79 143.87 325.81 181.80 325.79 C 182.06 322.20 181.88 318.60 181.92 315.00 C 181.95 210.00 181.88 105.00 181.96 0.00 Z" />
<path fill="#000" d=" M 0.00 629.02 C 192.00 629.07 384.00 629.06 576.00 629.03 L 576.00 720.00 L 0.00 720.00 L 0.00 629.02 Z" />
</g>
</svg>
