<?xml version="1.0" encoding="UTF-8" ?>
<!DOCTYPE svg PUBLIC "-//W3C//DTD SVG 1.1//EN" "http://www.w3.org/Graphics/SVG/1.1/DTD/svg11.dtd">
<svg width="771pt" height="531pt" viewBox="0 0 771 531" version="1.1" xmlns="http://www.w3.org/2000/svg">
<g id="#fff">
<path fill="#fff" opacity="1.00" d=" M 386.56 1.47 C 393.05 -0.97 399.55 2.32 405.66 4.30 C 523.67 43.63 641.66 82.99 759.68 122.30 C 763.83 123.66 767.79 126.40 769.45 130.59 C 771.57 136.34 770.77 143.74 765.80 147.81 C 761.59 151.23 756.10 152.31 751.11 154.10 C 636.10 192.42 521.10 230.76 406.10 269.09 C 402.03 270.40 398.05 272.08 393.82 272.80 C 389.04 273.53 384.56 271.27 380.12 269.89 C 354.81 261.48 329.51 253.04 304.15 244.80 C 267.29 232.69 230.54 220.29 193.63 208.34 C 192.37 207.89 191.11 207.40 189.89 206.87 C 197.28 202.55 205.48 199.76 213.29 196.27 C 223.00 191.94 233.21 188.93 243.09 185.04 C 290.03 165.72 337.12 146.67 385.10 130.08 C 392.44 127.31 401.61 126.32 406.09 119.02 C 412.39 110.08 407.79 96.19 397.57 92.52 C 390.40 89.95 382.95 92.84 376.15 95.19 C 352.02 103.42 328.10 112.23 304.29 121.33 C 281.17 131.33 257.31 139.46 234.00 149.00 C 225.27 152.59 216.27 155.54 207.86 159.87 C 192.22 166.71 176.27 172.96 161.43 181.46 C 151.11 187.35 141.18 194.34 133.61 203.61 C 126.99 211.64 122.29 221.09 118.91 230.90 C 113.53 247.08 110.94 264.02 109.23 280.94 C 109.23 282.75 108.70 284.78 109.59 286.45 C 111.89 288.83 114.82 290.49 117.10 292.89 C 123.31 299.32 127.48 307.95 127.76 316.96 C 128.30 327.70 123.70 338.56 115.63 345.66 C 114.08 347.12 112.37 348.47 111.18 350.27 C 111.17 354.91 112.50 359.42 113.06 364.01 C 115.21 376.81 116.00 389.77 117.32 402.67 C 118.02 411.44 117.92 420.24 118.28 429.02 C 118.82 445.70 117.19 462.65 111.52 478.42 C 105.23 496.45 93.71 513.06 77.65 523.67 C 71.02 527.88 63.18 531.74 55.11 530.07 C 48.51 528.60 42.36 525.66 36.24 522.86 C 23.63 516.77 11.10 510.25 0.00 501.62 L 0.00 499.22 C 4.44 492.70 10.51 487.59 15.77 481.77 C 27.54 469.21 37.84 455.25 46.21 440.19 C 60.35 414.71 68.65 386.29 72.48 357.50 C 72.40 356.48 72.87 354.97 71.76 354.37 C 68.27 351.82 64.32 349.85 61.36 346.64 C 55.67 340.92 52.06 333.32 50.60 325.43 C 48.16 311.77 53.39 296.98 63.99 288.00 C 66.56 285.80 69.72 284.46 72.38 282.39 C 73.33 279.71 73.37 276.82 73.67 274.02 C 74.71 261.65 76.75 249.39 79.41 237.27 C 84.20 216.58 92.14 196.08 106.05 179.74 C 104.36 178.28 102.16 177.72 100.11 176.99 C 76.89 169.28 53.80 161.18 30.61 153.41 C 25.30 151.56 19.04 150.27 15.77 145.21 C 12.07 140.21 12.18 132.92 15.97 128.01 C 19.61 122.82 26.25 121.71 31.83 119.71 C 150.08 80.32 268.33 40.90 386.56 1.47 Z" />
<path fill="#fff" opacity="1.00" d=" M 619.90 239.96 C 624.67 238.69 629.20 236.35 634.13 235.81 C 634.65 266.52 634.21 297.27 634.35 328.00 C 634.13 336.81 635.31 345.90 632.43 354.41 C 628.51 366.72 619.60 376.75 609.70 384.73 C 592.19 398.77 571.39 407.95 550.36 415.36 C 510.89 428.66 469.40 435.26 427.90 437.67 C 409.64 439.31 391.30 438.65 373.00 438.65 C 334.89 437.34 296.78 432.66 259.80 423.17 C 233.62 416.21 207.65 407.02 184.79 392.22 C 176.83 387.06 169.41 380.97 163.18 373.80 C 163.58 372.23 164.82 371.07 165.77 369.81 C 174.27 359.96 180.20 347.20 179.74 333.99 C 180.03 317.47 174.25 300.41 162.16 288.84 C 159.17 285.65 155.34 283.49 151.99 280.75 C 150.98 266.22 151.95 251.08 157.15 237.34 C 176.41 243.32 195.46 250.07 214.63 256.36 C 255.80 270.16 297.04 283.79 338.16 297.73 C 352.44 302.48 366.62 307.53 381.02 311.91 C 390.04 313.46 399.64 313.44 408.35 310.28 C 478.87 286.85 549.37 263.37 619.90 239.96 Z" />
</g>
</svg>
