<?xml version="1.0" encoding="UTF-8" ?>
<!DOCTYPE svg PUBLIC "-//W3C//DTD SVG 1.1//EN" "http://www.w3.org/Graphics/SVG/1.1/DTD/svg11.dtd">
<svg width="252pt" height="212pt" viewBox="0 0 252 212" version="1.1" xmlns="http://www.w3.org/2000/svg">
<g id="#fff">
<path fill="#fff" opacity="1.00" d=" M 153.39 0.00 L 154.67 0.00 C 160.28 6.80 166.78 12.79 172.74 19.27 C 191.54 38.80 210.36 58.32 229.13 77.89 C 236.82 85.61 244.03 93.81 252.00 101.24 L 252.00 101.87 C 240.35 113.27 229.36 125.32 217.94 136.95 C 215.14 139.63 212.99 143.19 209.40 144.91 C 194.15 129.41 179.42 113.38 164.00 98.07 C 160.29 101.35 157.17 105.21 153.76 108.78 C 121.75 143.16 89.93 177.75 57.78 212.00 L 0.77 212.00 C 31.45 181.27 62.67 151.08 93.58 120.59 C 109.18 104.89 125.45 89.85 140.75 73.87 C 122.00 53.60 102.26 34.21 83.57 13.89 C 99.17 10.28 115.05 7.89 130.76 4.75 C 138.29 3.10 146.03 2.40 153.39 0.00 Z" />
</g>
</svg>
