<?xml version="1.0" encoding="UTF-8" ?>
<!DOCTYPE svg PUBLIC "-//W3C//DTD SVG 1.1//EN" "http://www.w3.org/Graphics/SVG/1.1/DTD/svg11.dtd">
<svg width="1024pt" height="1024pt" viewBox="0 0 1024 1024" version="1.1" xmlns="http://www.w3.org/2000/svg">
<g id="#ffffffff">
<path fill="#ffffff" opacity="1.00" d=" M 506.41 133.60 C 520.39 130.50 535.79 138.78 540.80 152.21 C 542.98 157.18 543.11 162.67 543.01 168.00 C 542.97 213.35 543.05 258.70 542.97 304.05 C 543.13 320.33 528.22 334.70 511.96 333.98 C 496.08 334.10 481.91 319.93 482.02 304.04 C 481.99 257.01 481.99 209.98 482.02 162.95 C 482.02 149.04 492.75 136.18 506.41 133.60 Z" />
<path fill="#ffffff" opacity="1.00" d=" M 295.42 188.60 C 307.89 185.94 321.65 192.00 327.86 203.18 C 351.44 243.91 375.03 284.64 398.53 325.41 C 406.37 339.43 400.46 358.86 386.23 366.22 C 372.60 374.14 353.39 369.12 345.52 355.43 C 321.88 314.73 298.37 273.95 274.80 233.21 C 267.92 221.30 270.67 205.05 280.92 195.95 C 284.99 192.25 290.06 189.77 295.42 188.60 Z" />
<path fill="#ffffff" opacity="1.00" d=" M 714.39 188.60 C 724.26 186.58 734.97 189.78 742.09 196.91 C 751.48 206.16 753.80 221.74 747.19 233.21 C 723.62 273.95 700.12 314.73 676.49 355.43 C 668.50 369.35 648.82 374.25 635.16 365.87 C 621.34 358.28 615.78 339.21 623.49 325.42 C 646.85 284.84 670.35 244.34 693.77 203.79 C 697.98 196.01 705.74 190.37 714.39 188.60 Z" />
<path fill="#ffffff" opacity="1.00" d=" M 143.42 340.61 C 150.68 339.20 158.41 340.41 164.82 344.15 C 203.06 366.27 241.33 388.35 279.57 410.46 C 283.11 412.55 286.83 414.37 290.01 417.00 C 297.32 423.02 301.51 432.63 300.94 442.09 C 300.39 454.51 291.47 466.15 279.46 469.60 C 271.46 472.19 262.43 471.05 255.17 466.85 C 214.61 443.38 174.01 419.99 133.47 396.49 C 121.83 389.61 116.11 374.37 120.38 361.54 C 123.47 351.02 132.68 342.74 143.42 340.61 Z" />
<path fill="#ffffff" opacity="1.00" d=" M 866.41 340.60 C 876.49 338.54 887.48 341.93 894.53 349.46 C 902.90 358.01 905.41 371.68 900.57 382.64 C 897.98 388.55 893.50 393.61 887.93 396.88 C 848.41 419.73 808.87 442.53 769.36 465.38 C 764.08 468.44 758.27 471.11 752.03 470.93 C 739.09 471.50 726.57 462.51 722.64 450.23 C 717.89 437.26 723.60 421.54 735.46 414.51 C 774.73 391.76 814.07 369.11 853.34 346.37 C 857.46 343.99 861.72 341.66 866.41 340.60 Z" />
<path fill="#ffffff" opacity="1.00" d=" M 463.23 396.38 C 498.32 386.99 536.14 388.01 570.66 399.28 C 605.20 410.36 636.28 431.74 659.18 459.84 C 681.42 486.92 695.85 520.32 700.32 555.07 C 705.95 596.34 697.37 639.38 676.37 675.35 C 660.63 702.62 637.85 725.62 611.15 742.22 C 610.80 771.47 611.10 800.74 611.00 830.00 C 610.87 839.17 611.78 848.65 608.54 857.44 C 602.44 877.28 582.79 891.91 562.02 891.97 C 533.35 892.04 504.67 891.98 476.00 892.00 C 468.34 891.93 460.61 892.42 453.04 890.99 C 435.42 887.64 420.34 873.90 415.22 856.73 C 412.23 848.13 413.14 838.92 413.00 830.00 C 412.90 800.74 413.21 771.47 412.85 742.22 C 383.00 723.69 358.11 697.09 342.38 665.62 C 323.27 628.11 317.41 584.16 325.67 542.91 C 332.42 508.37 349.13 475.87 373.24 450.23 C 397.39 424.31 428.95 405.34 463.23 396.38 M 501.38 440.44 C 483.48 441.94 465.69 446.40 449.68 454.68 C 423.94 467.48 402.34 488.38 388.73 513.70 C 372.52 543.41 367.85 579.23 375.77 612.12 C 383.75 647.10 406.17 678.33 436.27 697.73 C 437.45 698.32 438.55 699.43 439.97 699.34 C 443.24 698.31 446.29 696.67 449.60 695.77 C 458.54 693.39 467.86 694.09 477.00 694.00 C 505.00 694.01 533.00 693.98 561.00 694.01 C 567.54 693.99 574.11 695.17 580.10 697.86 C 582.09 698.55 584.42 700.26 586.39 698.53 C 598.69 690.83 609.74 681.16 619.08 670.06 C 642.88 642.08 654.92 604.43 651.44 567.83 C 648.51 530.79 629.67 495.55 601.00 472.02 C 573.52 449.13 537.03 437.54 501.38 440.44 M 463.10 763.87 C 462.91 789.88 462.97 815.91 463.07 841.93 C 495.68 842.04 528.31 842.05 560.93 841.93 C 561.04 815.93 561.06 789.93 560.92 763.93 C 553.96 765.30 547.04 766.83 540.05 767.98 C 521.15 770.72 501.86 770.60 482.98 767.83 C 476.30 766.77 469.76 765.00 463.10 763.87 Z" />
</g>
</svg>
