<?xml version="1.0" encoding="UTF-8"?>
<!DOCTYPE svg PUBLIC "-//W3C//DTD SVG 1.1//EN" "http://www.w3.org/Graphics/SVG/1.1/DTD/svg11.dtd">
<svg width="600pt" height="600pt" viewBox="0 0 600 600" version="1.1" xmlns="http://www.w3.org/2000/svg">
<path fill="#c7d4dd" opacity="1.00" d=" M 288.40 50.42 C 315.44 47.85 343.57 52.90 366.93 67.11 C 389.79 81.06 408.78 101.76 419.79 126.25 C 429.06 147.08 431.84 170.42 429.64 193.01 C 427.50 214.01 419.95 234.45 407.62 251.61 C 391.21 274.32 368.09 292.76 341.11 301.07 C 317.61 308.37 292.03 308.75 268.21 302.73 C 237.60 294.92 211.25 274.25 193.72 248.30 C 179.66 227.42 172.83 202.08 173.27 177.00 C 173.19 149.05 182.59 121.04 200.29 99.31 C 218.07 76.82 243.01 59.53 271.18 53.18 C 276.85 51.87 282.61 50.97 288.40 50.42 Z"/>
<path fill="#c7d4dd" opacity="1.00" d=" M 167.37 286.43 C 172.79 285.87 178.38 284.90 183.78 286.08 C 189.24 287.79 193.81 291.39 198.62 294.36 C 206.59 299.38 214.37 304.69 222.41 309.61 C 231.88 315.46 242.30 319.56 252.74 323.31 C 276.30 331.74 302.08 334.42 326.74 329.73 C 342.84 326.83 358.33 321.15 373.07 314.15 C 387.88 306.38 401.19 296.09 415.68 287.78 C 420.92 284.62 427.25 285.53 433.04 286.03 C 452.28 287.88 471.17 295.38 485.67 308.30 C 497.36 318.72 506.09 332.03 513.03 345.97 C 518.64 357.12 522.89 368.92 526.05 380.99 C 532.43 405.15 536.10 430.00 537.01 454.97 C 537.50 472.46 538.72 490.43 533.39 507.38 C 528.04 525.88 515.27 541.97 498.65 551.63 C 483.73 560.49 466.19 563.95 449.00 564.01 C 356.00 563.99 263.00 564.00 170.00 564.00 C 158.78 563.96 147.47 564.45 136.35 562.58 C 119.57 560.04 103.29 552.86 90.95 541.07 C 80.23 531.15 72.75 517.96 69.24 503.81 C 66.38 493.12 65.85 481.99 66.21 470.98 C 66.22 447.20 68.50 423.41 73.13 400.07 C 76.69 382.59 81.34 365.17 89.10 349.04 C 97.79 330.71 109.59 313.14 126.58 301.56 C 138.73 293.38 152.83 288.21 167.37 286.43 Z"/>
</svg>
