<?xml version="1.0" encoding="UTF-8" ?>
<!DOCTYPE svg PUBLIC "-//W3C//DTD SVG 1.1//EN" "http://www.w3.org/Graphics/SVG/1.1/DTD/svg11.dtd">
<svg width="1024pt" height="1024pt" viewBox="0 0 1024 1024" version="1.1" xmlns="http://www.w3.org/2000/svg">
<g id="#303335ff">
</g>
<g id="#ffffffff">
<path fill="#ffffff" opacity="1.00" d=" M 403.85 134.72 C 489.02 162.11 574.03 190.01 659.14 217.58 C 713.16 235.16 767.21 252.65 821.21 270.28 C 735.23 298.30 649.23 326.26 563.23 354.20 C 514.17 286.80 465.24 219.30 416.20 151.89 C 412.11 146.15 407.78 140.57 403.85 134.72 Z" />
<path fill="#ffffff" opacity="1.00" d=" M 119.83 498.34 C 207.07 378.24 294.35 258.16 381.59 138.04 C 435.52 212.24 489.42 286.46 543.30 360.69 C 402.13 406.55 261.00 452.53 119.83 498.34 Z" />
<path fill="#ffffff" opacity="1.00" d=" M 142.88 511.83 C 280.44 467.00 418.04 422.32 555.64 377.63 C 588.17 422.42 620.72 467.19 653.21 512.00 C 620.77 556.82 588.14 601.50 555.73 646.34 C 422.73 603.35 289.86 559.93 156.90 516.80 C 152.26 515.08 147.27 514.15 142.88 511.83 Z" />
<path fill="#ffffff" opacity="1.00" d=" M 119.95 525.70 C 261.09 571.49 402.17 617.46 543.30 663.31 C 496.20 728.22 449.06 793.10 401.93 858.00 C 395.09 867.28 388.49 876.76 381.50 885.94 C 294.45 765.77 207.00 645.87 119.95 525.70 Z" />
<path fill="#ffffff" opacity="1.00" d=" M 563.21 669.82 C 649.23 697.75 735.24 725.72 821.25 753.67 C 701.57 792.74 581.78 831.51 462.05 870.47 C 442.61 876.73 423.23 883.20 403.75 889.33 C 456.84 816.11 510.04 742.97 563.21 669.82 Z" />
</g>
</svg>
