<?xml version="1.0" encoding="UTF-8" ?>
<!DOCTYPE svg PUBLIC "-//W3C//DTD SVG 1.1//EN" "http://www.w3.org/Graphics/SVG/1.1/DTD/svg11.dtd">
<svg width="687pt" height="1348pt" viewBox="0 0 687 1348" version="1.1" xmlns="http://www.w3.org/2000/svg">
<g id="#fff">
<path fill="#fff" opacity="1.00" d=" M 322.00 0.98 C 328.32 0.22 334.67 1.04 341.01 0.94 C 349.03 0.93 357.07 0.15 365.07 1.02 C 365.78 6.98 365.34 12.99 365.33 18.97 C 365.26 29.65 365.33 40.33 365.29 51.00 C 365.35 58.69 365.26 66.61 368.04 73.91 C 371.81 84.01 378.74 92.44 384.67 101.32 C 411.22 138.66 435.98 177.22 462.29 214.72 C 468.36 223.24 474.12 232.03 481.27 239.70 C 488.38 247.59 495.75 256.51 496.39 267.60 C 498.21 303.39 495.11 339.23 496.87 375.02 C 497.70 387.62 506.50 397.51 514.44 406.54 C 525.59 419.42 536.95 432.11 547.69 445.34 C 570.25 472.61 592.29 500.56 618.61 524.37 C 625.28 530.22 627.61 539.36 627.90 547.92 C 628.58 562.27 628.34 576.64 628.01 591.00 C 627.97 606.67 628.02 622.33 628.00 638.00 C 627.99 642.91 627.73 647.84 628.25 652.75 C 636.33 653.78 644.54 653.30 652.61 654.52 C 662.59 655.68 672.95 659.55 679.07 667.91 C 684.39 674.72 685.33 683.56 687.00 691.75 L 687.00 1156.25 C 685.35 1164.30 684.85 1173.00 680.05 1179.98 C 675.11 1187.73 666.17 1191.75 657.43 1193.42 C 647.82 1195.42 637.96 1194.30 628.26 1195.29 C 627.57 1205.51 628.21 1215.77 628.00 1226.00 C 628.00 1266.67 628.00 1307.33 628.00 1348.00 L 59.00 1348.00 C 59.00 1307.00 59.00 1266.00 59.00 1225.00 C 58.79 1215.10 59.43 1205.18 58.74 1195.30 C 47.44 1194.20 35.79 1195.64 24.77 1192.24 C 16.77 1190.09 9.48 1184.92 5.54 1177.55 C 1.26 1169.88 0.95 1160.89 0.00 1152.37 L 0.00 691.73 C 1.29 685.64 2.19 679.39 4.63 673.62 C 7.75 666.18 14.19 660.49 21.67 657.63 C 33.42 652.77 46.39 654.14 58.75 652.75 C 59.97 620.85 57.94 588.91 58.99 557.00 C 59.32 548.58 58.30 539.49 62.83 531.93 C 69.56 520.28 81.59 513.28 90.34 503.37 C 113.32 477.58 134.85 450.55 157.25 424.27 C 165.96 413.96 175.28 404.12 183.31 393.25 C 187.91 387.14 190.17 379.58 190.27 371.96 C 191.72 337.19 188.88 302.37 190.58 267.60 C 190.92 262.23 192.63 256.99 195.50 252.44 C 200.76 243.94 208.45 237.36 214.32 229.32 C 236.49 198.60 257.25 166.90 278.60 135.60 C 289.13 119.89 300.24 104.58 310.93 88.98 C 315.98 81.52 320.71 73.27 321.10 64.04 C 321.92 49.04 321.65 34.02 321.70 19.01 C 321.74 13.00 321.29 6.97 322.00 0.98 M 328.49 755.63 C 307.75 757.71 287.32 763.34 268.72 772.78 C 238.52 787.88 213.08 812.33 196.84 841.93 C 178.60 874.72 171.99 913.79 178.31 950.77 C 183.52 982.69 198.36 1012.93 220.30 1036.67 C 240.48 1058.68 266.61 1075.18 295.21 1083.81 C 339.19 1097.32 388.65 1091.67 428.32 1068.32 C 469.59 1044.60 499.81 1002.55 508.79 955.77 C 516.42 918.03 510.46 877.70 492.19 843.81 C 477.59 816.41 455.18 793.24 428.32 777.68 C 398.43 760.11 362.98 752.55 328.49 755.63 Z" />
<path fill="#fff" opacity="1.00" d=" M 325.13 818.13 C 335.04 817.89 344.97 817.89 354.88 818.13 C 355.27 853.70 354.73 889.30 355.13 924.87 C 379.03 925.28 402.97 924.72 426.87 925.12 C 427.11 935.03 427.11 944.96 426.87 954.87 C 401.59 955.18 376.29 954.90 351.00 955.00 C 342.38 954.87 333.74 955.24 325.13 954.88 C 324.80 936.26 325.10 917.62 325.00 899.00 C 325.09 872.04 324.81 845.08 325.13 818.13 Z" />
</g>
</svg>
