<?xml version="1.0" encoding="UTF-8"?>
<!DOCTYPE svg PUBLIC "-//W3C//DTD SVG 1.1//EN" "http://www.w3.org/Graphics/SVG/1.1/DTD/svg11.dtd">
<svg width="512pt" height="512pt" viewBox="0 0 512 512" version="1.1" xmlns="http://www.w3.org/2000/svg">
<path fill="#c7d4dd" opacity="1.00" d="M 276.13 54.16 C 297.28 39.43 323.25 31.84 349.00 32.80 C 377.76 33.62 406.00 45.28 427.03 64.90 C 448.13 84.32 461.95 111.47 465.05 140.00 C 468.21 167.33 461.71 195.67 446.79 218.79 C 430.36 244.61 403.80 263.78 374.04 271.02 C 345.94 278.04 315.31 274.62 289.60 261.22 C 263.71 286.98 237.97 312.89 212.13 338.71 C 226.01 352.55 239.84 366.43 253.73 380.27 C 256.14 382.59 258.47 385.12 259.71 388.28 C 262.66 395.08 261.02 403.51 255.77 408.74 C 234.12 430.42 212.45 452.08 190.78 473.74 C 184.04 480.80 171.77 481.12 164.73 474.33 C 149.98 459.69 135.31 444.97 120.63 430.26 C 116.28 434.36 112.23 438.78 107.77 442.76 C 97.10 451.99 80.96 453.99 68.29 447.84 C 56.10 442.20 47.61 429.47 47.19 416.03 C 46.68 405.73 50.76 395.33 58.15 388.13 C 117.87 328.44 177.58 268.74 237.31 209.05 C 224.89 184.91 220.92 156.58 226.29 129.96 C 232.21 99.48 250.57 71.74 276.13 54.16 M 340.29 107.36 C 325.54 108.71 311.81 117.67 304.52 130.54 C 297.31 142.94 296.39 158.73 302.10 171.89 C 307.59 184.92 319.34 195.10 333.03 198.63 C 346.33 202.20 361.15 199.45 372.23 191.27 C 383.77 182.98 391.10 169.18 391.39 154.96 C 391.85 141.72 386.24 128.45 376.47 119.51 C 366.88 110.52 353.36 106.00 340.29 107.36 Z" />
</svg>