<?xml version="1.0" encoding="UTF-8" ?>
<!DOCTYPE svg PUBLIC "-//W3C//DTD SVG 1.1//EN" "http://www.w3.org/Graphics/SVG/1.1/DTD/svg11.dtd">
<svg width="84pt" height="135pt" viewBox="0 0 84 135" version="1.1" xmlns="http://www.w3.org/2000/svg">
<g id="#fff">
<path fill="#fff" opacity="1.00" d=" M 48.39 1.16 C 50.34 0.03 53.81 0.56 54.21 3.15 C 55.02 5.73 52.85 8.72 50.04 8.03 C 46.57 8.19 45.56 2.75 48.39 1.16 Z" />
<path fill="#fff" opacity="1.00" d=" M 42.36 10.38 C 47.52 8.98 52.43 15.11 49.97 19.82 C 48.19 24.70 40.70 25.49 37.98 21.06 C 35.08 17.22 37.60 11.06 42.36 10.38 Z" />
<path fill="#fff" opacity="1.00" d=" M 26.06 32.38 C 36.67 32.05 47.34 32.05 57.95 32.38 C 57.84 35.68 55.81 38.60 55.92 41.94 C 56.03 55.32 55.96 68.69 55.95 82.07 C 55.75 87.19 59.22 91.26 61.45 95.56 C 68.66 108.72 76.18 121.72 83.16 135.00 L 74.20 135.00 C 71.61 131.59 70.17 126.59 65.68 125.22 C 60.34 122.92 55.62 127.80 50.43 128.34 C 41.23 130.73 33.15 123.37 23.99 124.70 C 19.55 125.37 14.20 126.49 11.84 130.77 C 11.01 132.15 10.30 133.59 9.53 135.00 L 0.84 135.00 C 9.11 119.32 18.01 103.97 26.51 88.41 C 27.91 85.85 28.09 82.88 28.08 80.02 C 27.97 67.33 28.00 54.63 28.08 41.94 C 28.19 38.60 26.13 35.69 26.06 32.38 M 35.25 96.04 C 32.98 97.37 33.20 101.71 36.18 101.87 C 39.33 102.70 40.73 98.36 38.71 96.33 C 37.57 96.08 36.42 95.98 35.25 96.04 M 45.31 105.35 C 41.22 106.47 39.83 112.24 42.86 115.15 C 45.73 118.38 51.90 117.23 52.92 112.85 C 54.58 108.39 49.77 103.52 45.31 105.35 Z" />
</g>
</svg>
