<?xml version="1.0" encoding="UTF-8" ?>
<!DOCTYPE svg PUBLIC "-//W3C//DTD SVG 1.1//EN" "http://www.w3.org/Graphics/SVG/1.1/DTD/svg11.dtd">
<svg width="1450pt" height="967pt" viewBox="0 0 1450 967" version="1.1" xmlns="http://www.w3.org/2000/svg">
<g id="#fff">
<path fill="#fff" opacity="1.00" d=" M 875.62 18.63 C 886.52 7.86 901.74 1.79 917.01 1.57 C 932.97 1.16 949.00 7.41 960.39 18.61 C 1017.09 75.24 1073.73 131.94 1130.41 188.60 C 1131.03 189.27 1131.80 189.66 1132.72 189.76 C 1144.09 179.15 1154.78 167.79 1165.90 156.90 C 1173.61 149.21 1181.16 140.84 1191.24 136.23 C 1213.04 125.36 1241.26 129.17 1259.07 145.92 C 1273.31 160.01 1287.40 174.27 1301.62 188.39 C 1314.09 199.99 1322.01 216.81 1321.40 233.99 C 1321.83 249.69 1315.25 265.17 1304.57 276.55 C 1290.53 290.88 1276.02 304.78 1262.14 319.26 C 1262.88 321.99 1265.58 323.58 1267.39 325.61 C 1319.75 377.91 1372.06 430.27 1424.40 482.59 C 1429.01 487.32 1434.01 491.72 1437.96 497.05 C 1444.59 505.56 1448.19 516.02 1450.00 526.56 L 1450.00 541.42 C 1449.14 544.80 1448.45 548.22 1447.56 551.60 C 1444.57 561.73 1438.69 570.83 1431.40 578.40 C 1418.41 591.41 1405.36 604.37 1392.42 617.44 C 1391.41 618.38 1390.34 619.31 1389.07 619.85 C 1384.95 616.70 1381.70 612.59 1377.92 609.08 C 1196.58 427.73 1015.23 246.40 833.91 65.05 C 833.17 64.24 832.48 63.34 832.30 62.23 C 833.11 61.09 834.07 60.07 835.06 59.07 C 848.65 45.66 862.03 32.04 875.62 18.63 Z" />
<path fill="#fff" opacity="1.00" d=" M 665.96 57.03 C 685.19 41.54 714.31 39.67 735.29 52.68 C 744.77 58.27 751.83 66.80 759.63 74.37 C 966.48 281.19 1173.30 488.03 1380.14 694.86 C 1384.23 699.09 1388.59 703.06 1392.53 707.43 C 1399.55 715.73 1404.60 725.86 1406.40 736.61 C 1410.19 755.07 1404.28 774.91 1392.21 789.18 C 1362.33 819.31 1332.20 849.20 1302.25 879.26 C 1293.04 887.59 1281.24 893.26 1268.88 894.78 C 1250.74 897.42 1231.76 891.03 1218.43 878.58 C 1158.72 818.95 1099.09 759.25 1039.41 699.60 C 1013.20 673.53 987.27 647.17 960.89 621.30 C 960.49 621.52 959.68 621.98 959.28 622.21 C 907.29 674.24 855.26 726.24 803.25 778.25 C 742.00 839.61 680.53 900.76 619.42 962.24 C 620.56 963.97 622.01 965.48 623.43 967.00 L 278.41 967.00 C 206.49 894.79 134.30 822.83 62.26 750.74 C 53.69 742.92 47.41 732.53 44.74 721.23 C 38.93 700.20 45.63 676.39 61.19 661.17 C 89.48 632.80 117.83 604.50 146.15 576.17 C 157.10 565.28 172.26 558.50 187.75 558.27 C 200.41 557.62 212.95 561.73 223.55 568.48 C 229.29 572.64 234.54 577.44 239.41 582.59 C 322.08 665.24 404.74 747.93 487.41 830.58 C 488.57 832.19 490.44 832.25 491.59 830.59 C 598.59 723.59 705.59 616.59 812.59 509.59 C 818.53 503.36 825.07 497.65 830.70 491.14 C 828.37 488.20 825.51 485.77 822.91 483.10 C 739.91 400.09 656.90 317.09 573.90 234.08 C 564.03 223.48 557.90 209.50 556.97 195.03 C 556.07 177.97 562.28 160.50 574.21 148.18 C 600.28 121.94 626.52 95.85 652.66 69.66 C 657.03 65.38 661.14 60.82 665.96 57.03 Z" />
<path fill="#fff" opacity="1.00" d=" M 53.60 840.59 C 55.97 838.29 58.05 835.57 61.00 833.96 C 62.88 835.02 64.36 836.62 65.86 838.15 C 108.59 881.21 151.82 923.79 194.40 967.00 L 21.50 967.00 C 15.00 960.44 8.89 953.30 5.34 944.67 C 2.55 939.24 1.99 933.10 0.00 927.41 L 0.00 912.63 C 2.00 905.61 3.10 898.25 6.78 891.82 C 10.51 883.72 16.78 877.23 23.10 871.09 C 33.27 860.93 43.44 850.77 53.60 840.59 Z" />
</g>
</svg>
