<?xml version="1.0" encoding="UTF-8" ?>
<!DOCTYPE svg PUBLIC "-//W3C//DTD SVG 1.1//EN" "http://www.w3.org/Graphics/SVG/1.1/DTD/svg11.dtd">
<svg width="512pt" height="512pt" viewBox="0 0 512 512" version="1.1" xmlns="http://www.w3.org/2000/svg">
<g id="#c7d4dd">
<path fill="#c7d4dd" opacity="1.00" d=" M 217.04 38.04 C 243.68 37.97 270.32 37.97 296.96 38.04 C 297.22 59.87 296.66 81.70 297.23 103.52 C 311.08 107.00 324.05 113.10 336.62 119.77 C 352.14 104.19 367.64 88.60 383.26 73.13 C 397.10 86.48 410.49 100.31 424.17 113.83 C 429.37 119.16 434.86 124.22 439.86 129.74 C 424.35 145.59 408.35 160.95 392.97 176.93 C 399.85 189.27 405.17 202.39 409.04 215.97 C 431.01 216.10 452.98 215.90 474.96 216.04 C 475.03 242.68 475.03 269.32 474.96 295.96 C 452.99 296.10 431.01 295.90 409.04 296.04 C 405.16 309.61 399.85 322.74 392.97 335.07 C 408.35 351.05 424.36 366.42 439.87 382.26 C 428.35 394.27 416.37 405.83 404.67 417.67 C 397.49 424.69 390.62 432.03 383.26 438.87 C 367.64 423.39 352.14 407.80 336.62 392.23 C 324.05 398.90 311.08 404.99 297.23 408.50 C 296.65 430.64 297.23 452.80 296.96 474.95 C 270.32 475.04 243.68 475.03 217.04 474.96 C 216.86 453.03 217.18 431.10 216.90 409.18 C 202.93 405.51 189.56 399.93 176.92 392.98 C 161.28 408.02 146.25 423.69 130.74 438.87 C 111.67 420.31 93.10 401.24 74.16 382.54 C 77.28 378.88 80.71 375.51 84.17 372.16 C 96.03 360.31 107.87 348.43 119.76 336.61 C 116.68 330.25 113.15 324.11 110.46 317.56 C 107.39 310.59 105.29 303.26 102.96 296.03 C 81.32 295.90 59.68 296.10 38.04 295.96 C 37.97 269.32 37.97 242.68 38.04 216.04 C 59.68 215.90 81.32 216.10 102.96 215.97 C 105.30 208.73 107.39 201.40 110.46 194.44 C 113.15 187.89 116.68 181.74 119.77 175.38 C 104.52 160.20 89.27 145.02 74.13 129.74 C 87.32 116.06 100.97 102.84 114.33 89.33 C 119.83 83.96 125.06 78.31 130.74 73.13 C 146.25 88.31 161.28 103.98 176.92 119.03 C 189.55 112.06 202.94 106.51 216.90 102.84 C 217.18 81.24 216.85 59.64 217.04 38.04 M 244.41 149.46 C 214.38 152.54 186.26 169.24 168.81 193.80 C 155.90 211.78 148.73 233.85 148.89 256.00 C 148.68 283.85 160.11 311.54 179.81 331.20 C 198.61 350.52 225.04 362.22 252.00 363.04 C 271.08 363.86 290.33 359.30 307.09 350.16 C 330.28 337.56 348.63 316.16 357.20 291.16 C 365.13 268.62 365.13 243.37 357.19 220.83 C 347.93 193.72 327.11 170.91 301.17 158.84 C 283.57 150.56 263.72 147.41 244.41 149.46 Z" />
</g>
</svg>
