<?xml version="1.0" encoding="UTF-8" standalone="no"?>
<!DOCTYPE svg  PUBLIC '-//W3C//DTD SVG 1.1//EN'  'http://www.w3.org/Graphics/SVG/1.1/DTD/svg11.dtd'>
<svg width="600pt" xmlns="http://www.w3.org/2000/svg" viewBox="0 0 600 600" version="1.1" height="600pt">
 <path d="m288.4 50.42c27.04-2.57 55.17 2.48 78.53 16.69 22.86 13.95 41.85 34.65 52.86 59.14 9.27 20.83 12.05 44.17 9.85 66.76-2.14 21-9.69 41.44-22.02 58.6-16.41 22.71-39.53 41.15-66.51 49.46-23.5 7.3-49.08 7.68-72.9 1.66-30.61-7.81-56.96-28.48-74.49-54.43-14.06-20.88-20.89-46.22-20.45-71.3-0.08-27.95 9.32-55.96 27.02-77.69 17.78-22.49 42.72-39.78 70.89-46.13 5.67-1.31 11.43-2.21 17.22-2.76z" fill="#c7d4dd"/>
 <path d="m167.37 286.43c5.42-0.56 11.01-1.53 16.41-0.35 5.46 1.71 10.03 5.31 14.84 8.28 7.97 5.02 15.75 10.33 23.79 15.25 9.47 5.85 19.89 9.95 30.33 13.7 23.56 8.43 49.34 11.11 74 6.42 16.1-2.9 31.59-8.58 46.33-15.58 14.81-7.77 28.12-18.06 42.61-26.37 5.24-3.16 11.57-2.25 17.36-1.75 19.24 1.85 38.13 9.35 52.63 22.27 11.69 10.42 20.42 23.73 27.36 37.67 5.61 11.15 9.86 22.95 13.02 35.02 6.38 24.16 10.05 49.01 10.96 73.98 0.49 17.49 1.71 35.46-3.62 52.41-5.35 18.5-18.12 34.59-34.74 44.25-14.92 8.86-32.46 12.32-49.65 12.38-93-0.02-186-0.01-279-0.01-11.22-0.04-22.53 0.45-33.65-1.42-16.78-2.54-33.06-9.72-45.4-21.51-10.72-9.92-18.2-23.11-21.71-37.26-2.86-10.69-3.39-21.82-3.03-32.83 0.01-23.78 2.29-47.57 6.92-70.91 3.56-17.48 8.21-34.9 15.97-51.03 8.69-18.33 20.49-35.9 37.48-47.48 12.15-8.18 26.25-13.35 40.79-15.13z" fill="#c7d4dd"/>
</svg>
