<?xml version="1.0" encoding="UTF-8" ?>
<!DOCTYPE svg PUBLIC "-//W3C//DTD SVG 1.1//EN" "http://www.w3.org/Graphics/SVG/1.1/DTD/svg11.dtd">
<svg width="246pt" height="195pt" viewBox="0 0 246 195" version="1.1" xmlns="http://www.w3.org/2000/svg">
<g id="#d2aee5">
<path fill="#d2aee5" opacity="1.00" d=" M 17.53 0.00 L 80.30 0.00 C 91.59 8.42 103.64 15.76 115.12 23.91 C 83.73 24.11 52.33 23.95 20.93 24.00 C 16.35 24.01 11.64 25.10 7.95 27.94 C 4.04 30.68 1.90 35.12 0.00 39.35 L 0.00 17.56 C 1.18 13.36 2.73 9.06 6.00 6.01 C 9.05 2.74 13.34 1.20 17.53 0.00 Z" />
</g>
<g id="#d2b6e5">
<path fill="#d2b6e5" opacity="1.00" d=" M 7.95 27.94 C 11.64 25.10 16.35 24.01 20.93 24.00 C 52.33 23.95 83.73 24.11 115.12 23.91 C 151.77 24.13 188.42 23.91 225.07 24.02 C 229.83 24.17 234.74 25.46 238.43 28.60 C 242.58 31.73 244.71 36.64 246.00 41.53 L 246.00 177.45 C 244.69 182.59 242.32 187.69 237.88 190.85 C 234.90 193.25 231.12 194.19 227.47 195.00 L 18.54 195.00 C 12.73 194.07 7.05 191.30 3.72 186.28 C 1.83 183.66 0.96 180.50 0.00 177.47 L 0.00 39.35 C 1.90 35.12 4.04 30.68 7.95 27.94 Z" />
</g>
</svg>
